PathFileType	4	(X/Y/Z)	/tmp/tmp8ooq684z//results/MarkerData/rotated_Sprint_04500001.trc
DataRate	CameraRate	NumFrames	NumMarkers	Units	OrigDataRate	OrigDataStartFrame	OrigNumFrames
200	200	9	46	m	200	294	785
Frame#	Time	C7			L.ASIS			L.PSIS			L_5meta			L_Shoulder			L_ankle			L_calc			L_elbow_lat			L_elbow_med			L_forearm			L_humerus			L_knee			L_sh2			L_sh3			L_shank_antsup			L_thigh1			L_thigh2			L_thigh3			L_thigh4			L_toe			L_wrist_radius			L_wrist_ulna			R_Shoulder			R_elbow_lat			R_elbow_med			R_forearm			R_humerus			R_wrist_radius			R_wrist_ulna			Sternum			r.ASIS			r.PSIS			r_5meta			r_ankle			r_calc			r_knee			r_sh2			r_sh3			r_sh4			r_shank_antsup			r_thigh1			r_thigh2			r_thigh3			r_thigh4			r_thigh5			r_toe		
		X1	Y1	Z1	X2	Y2	Z2	X3	Y3	Z3	X4	Y4	Z4	X5	Y5	Z5	X6	Y6	Z6	X7	Y7	Z7	X8	Y8	Z8	X9	Y9	Z9	X10	Y10	Z10	X11	Y11	Z11	X12	Y12	Z12	X13	Y13	Z13	X14	Y14	Z14	X15	Y15	Z15	X16	Y16	Z16	X17	Y17	Z17	X18	Y18	Z18	X19	Y19	Z19	X20	Y20	Z20	X21	Y21	Z21	X22	Y22	Z22	X23	Y23	Z23	X24	Y24	Z24	X25	Y25	Z25	X26	Y26	Z26	X27	Y27	Z27	X28	Y28	Z28	X29	Y29	Z29	X30	Y30	Z30	X31	Y31	Z31	X32	Y32	Z32	X33	Y33	Z33	X34	Y34	Z34	X35	Y35	Z35	X36	Y36	Z36	X37	Y37	Z37	X38	Y38	Z38	X39	Y39	Z39	X40	Y40	Z40	X41	Y41	Z41	X42	Y42	Z42	X43	Y43	Z43	X44	Y44	Z44	X45	Y45	Z45	X46	Y46	Z46

295	1.47	0.766939	1.55157	-0.293477	0.84205	1.01846	-0.424183	0.652453	1.08247	-0.329773	1.14967	0.0427155	-0.411084	0.781866	1.52537	-0.475731	0.99063	0.101864	-0.391766	0.946303	0.0814706	-0.328623	0.523495	1.33133	-0.581374	0.499697	1.28914	-0.495258	0.64053	1.21494	-0.585695	0.629305	1.35761	-0.567498	0.932559	0.540056	-0.451091	0.88365	0.415173	-0.446111	0.914146	0.307051	-0.415643	0.974581	0.422306	-0.452524	0.922291	0.784668	-0.467482	0.973721	0.657382	-0.437411	0.820348	0.740506	-0.49911	0.870109	0.617843	-0.455607	1.18606	0.0880451	-0.358666	0.741499	1.17098	-0.538072	0.700052	1.12092	-0.571376	0.828147	1.52437	-0.1094	0.663623	1.25429	0.0496895	0.632074	1.2257	-0.0343449	0.818739	1.20059	-0.0186726	0.774559	1.32495	0.00131792	0.910065	1.1582	-0.0729812	0.897255	1.11905	-0.0429368	0.912372	1.45159	-0.315258	0.872257	0.997112	-0.162841	0.663962	1.06598	-0.215986	0.131035	0.41573	-0.161559	0.255052	0.493443	-0.177328	0.260468	0.568223	-0.241997	0.690025	0.513267	-0.150945	0.46069	0.466107	-0.15447	0.576807	0.539703	-0.130964	0.463741	0.547971	-0.150692	0.580149	0.467215	-0.146249	0.834965	0.701474	-0.134602	0.80031	0.592132	-0.155702	0.752678	0.571301	-0.133849	0.72901	0.721495	-0.0976811	0.699791	0.611082	-0.127631	0.149756	0.361945	-0.216701
296	1.475	0.767792	1.54748	-0.295018	0.840823	1.01576	-0.42437	0.651479	1.0808	-0.329944	1.13225	0.0395985	-0.40797	0.783338	1.52035	-0.47765	0.975711	0.0970093	-0.390057	0.92921	0.078635	-0.32765	0.527831	1.32269	-0.585171	0.503198	1.28085	-0.499178	0.645117	1.20658	-0.588194	0.633222	1.34939	-0.569862	0.930873	0.53676	-0.45116	0.878752	0.412391	-0.446747	0.906686	0.305916	-0.415655	0.969884	0.417311	-0.451881	0.924536	0.783088	-0.468658	0.974132	0.655156	-0.437614	0.819963	0.739258	-0.496031	0.869889	0.615249	-0.456193	1.16995	0.0782297	-0.35134	0.74583	1.16322	-0.539433	0.704799	1.1129	-0.573055	0.82754	1.52087	-0.109928	0.658822	1.25305	0.0479351	0.628265	1.22435	-0.0361493	0.813498	1.1935	-0.0170924	0.770537	1.32175	0.000197305	0.904866	1.14799	-0.0696446	0.89008	1.1096	-0.0395888	0.912892	1.44707	-0.315147	0.870904	0.993691	-0.162227	0.663081	1.06147	-0.215282	0.141428	0.423413	-0.161233	0.266408	0.499242	-0.176772	0.272893	0.574446	-0.241133	0.700668	0.507113	-0.149543	0.471012	0.465708	-0.154344	0.58901	0.536235	-0.130247	0.476137	0.547364	-0.150012	0.590447	0.463606	-0.145603	0.840675	0.698352	-0.134936	0.809061	0.587984	-0.155631	0.762073	0.565585	-0.133624	0.734518	0.715228	-0.0969133	0.708057	0.604198	-0.127071	0.159317	0.369117	-0.217053
297	1.48	0.768378	1.54331	-0.296332	0.839587	1.01285	-0.424617	0.650509	1.07912	-0.330129	1.11229	0.0402268	-0.404748	0.784965	1.51529	-0.479622	0.959759	0.0944445	-0.387469	0.910197	0.0770194	-0.326653	0.532377	1.31373	-0.58905	0.506917	1.27238	-0.503274	0.649911	1.19784	-0.590711	0.637254	1.34091	-0.572312	0.928979	0.532779	-0.451041	0.873252	0.409333	-0.447363	0.898682	0.304764	-0.415892	0.964387	0.411877	-0.451318	0.927204	0.780432	-0.470055	0.974014	0.651732	-0.438016	0.819699	0.737591	-0.493308	0.869342	0.611747	-0.456962	1.15163	0.0692293	-0.343795	0.750296	1.1552	-0.540744	0.709661	1.10459	-0.574716	0.826833	1.5171	-0.110421	0.653944	1.25167	0.0462137	0.624286	1.2228	-0.0379578	0.808283	1.18647	-0.0154324	0.76627	1.3183	-0.00114121	0.89923	1.13753	-0.066132	0.882426	1.09985	-0.035948	0.91344	1.44225	-0.315004	0.869346	0.989999	-0.16141	0.662075	1.05686	-0.21469	0.152715	0.429872	-0.16046	0.278624	0.504093	-0.176178	0.285819	0.579792	-0.240319	0.71148	0.501189	-0.148445	0.482083	0.46495	-0.154391	0.601588	0.532454	-0.129539	0.488966	0.546359	-0.149156	0.601275	0.459744	-0.144699	0.846413	0.695141	-0.134911	0.817779	0.583942	-0.155492	0.771726	0.560114	-0.1332	0.74015	0.709017	-0.0960033	0.716673	0.597429	-0.126182	0.169741	0.375065	-0.216913
298	1.485	0.768793	1.5391	-0.297413	0.838388	1.00979	-0.424783	0.64931	1.07666	-0.330254	1.09147	0.0411295	-0.401724	0.786716	1.50995	-0.481488	0.941773	0.0943827	-0.383105	0.889128	0.0743171	-0.324866	0.537051	1.30447	-0.593046	0.510843	1.26373	-0.507467	0.65496	1.18882	-0.593241	0.641486	1.33218	-0.574909	0.926898	0.528103	-0.450854	0.867664	0.406372	-0.447902	0.890132	0.303592	-0.416319	0.95868	0.40607	-0.45054	0.929323	0.776582	-0.4711	0.973255	0.6473	-0.437961	0.819554	0.735051	-0.492096	0.867991	0.608016	-0.457549	1.13103	0.0618247	-0.337913	0.755089	1.14688	-0.542001	0.714751	1.09596	-0.57627	0.825971	1.51316	-0.110947	0.648974	1.25018	0.0444956	0.62019	1.22116	-0.0398519	0.803106	1.17958	-0.0139283	0.761868	1.31466	-0.00267684	0.893051	1.12686	-0.062404	0.874325	1.08992	-0.0320516	0.914064	1.43714	-0.314796	0.868002	0.986392	-0.1608	0.660751	1.05212	-0.213899	0.164735	0.435019	-0.159293	0.291564	0.508043	-0.175682	0.299191	0.584239	-0.239532	0.722558	0.495558	-0.147451	0.493677	0.463814	-0.154179	0.61449	0.528345	-0.128693	0.502238	0.544969	-0.148244	0.61265	0.455665	-0.143803	0.85221	0.692088	-0.134552	0.826643	0.580123	-0.155258	0.781506	0.554965	-0.132488	0.745872	0.702971	-0.0950835	0.725378	0.59084	-0.125631	0.181363	0.37997	-0.216248
299	1.49	0.76919	1.53484	-0.298551	0.837124	1.00657	-0.424724	0.647513	1.07222	-0.33022	1.06974	0.0413346	-0.399423	0.788618	1.50441	-0.483197	0.920201	0.094455	-0.376488	0.866833	0.0696428	-0.319953	0.541901	1.29493	-0.597108	0.515011	1.25483	-0.511594	0.660281	1.17961	-0.595777	0.645972	1.32315	-0.577623	0.924361	0.522984	-0.450838	0.863192	0.403889	-0.448102	0.881038	0.302399	-0.416901	0.954121	0.399979	-0.449059	0.930412	0.771828	-0.471314	0.971852	0.641989	-0.437474	0.819191	0.731605	-0.492422	0.866041	0.603959	-0.457905	1.10853	0.057698	-0.334234	0.760041	1.13828	-0.54321	0.720042	1.08714	-0.577746	0.824914	1.50915	-0.111432	0.643994	1.24864	0.0428637	0.61605	1.21926	-0.04166	0.79753	1.17243	-0.0124761	0.757307	1.31083	-0.00439738	0.886372	1.11605	-0.0584251	0.86577	1.07992	-0.02794	0.914767	1.43182	-0.314534	0.866633	0.982925	-0.160251	0.659026	1.04714	-0.212997	0.178413	0.438696	-0.158061	0.305154	0.511082	-0.175172	0.312871	0.587591	-0.238657	0.734013	0.490252	-0.146548	0.505753	0.462298	-0.153873	0.627799	0.524083	-0.127393	0.515942	0.54321	-0.147217	0.624435	0.451572	-0.143725	0.858063	0.689269	-0.134005	0.835579	0.576625	-0.154819	0.791339	0.550133	-0.131651	0.75154	0.697156	-0.0942745	0.734159	0.584526	-0.125363	0.195125	0.384599	-0.215599
300	1.495	0.769524	1.53031	-0.299918	0.835839	1.00327	-0.424454	0.645388	1.06676	-0.330109	1.04757	0.0412514	-0.39719	0.790653	1.49869	-0.484845	0.897232	0.0937041	-0.368956	0.84484	0.0666445	-0.314038	0.546994	1.28519	-0.601238	0.519275	1.24563	-0.515685	0.665854	1.17014	-0.598257	0.650689	1.3138	-0.580319	0.922279	0.517641	-0.450165	0.860532	0.402362	-0.447683	0.8714	0.301185	-0.417601	0.951172	0.394001	-0.446324	0.930309	0.76641	-0.470358	0.970354	0.635937	-0.437419	0.818648	0.727476	-0.493719	0.863928	0.59936	-0.457577	1.08625	0.0570108	-0.331578	0.765106	1.12953	-0.544429	0.725623	1.07814	-0.57906	0.823768	1.50517	-0.11186	0.639001	1.24704	0.0414099	0.611803	1.21722	-0.0434424	0.791269	1.16506	-0.0107721	0.752531	1.30693	-0.00638598	0.879283	1.10503	-0.0539303	0.856653	1.06985	-0.0236346	0.915528	1.42627	-0.314229	0.864987	0.979204	-0.15958	0.656905	1.04176	-0.212025	0.192776	0.441233	-0.156768	0.319271	0.513156	-0.174644	0.326775	0.589822	-0.237581	0.74569	0.48513	-0.145849	0.518355	0.460425	-0.153493	0.641497	0.519721	-0.12605	0.530027	0.541129	-0.146055	0.636709	0.447417	-0.143634	0.863956	0.686729	-0.133309	0.844606	0.573419	-0.154201	0.801295	0.545716	-0.130688	0.757251	0.691589	-0.0935714	0.742982	0.578578	-0.125144	0.210393	0.389203	-0.215359
301	1.5	0.769659	1.52542	-0.301306	0.834546	0.999977	-0.423999	0.643344	1.06155	-0.329843	1.0254	0.0412468	-0.395284	0.792822	1.49287	-0.486554	0.876304	0.0936306	-0.363175	0.82318	0.067084	-0.310514	0.552411	1.27525	-0.605397	0.523666	1.23627	-0.519896	0.671615	1.16045	-0.6007	0.655585	1.30422	-0.582886	0.921115	0.512391	-0.448391	0.858929	0.40145	-0.447209	0.861218	0.299947	-0.418386	0.948715	0.388487	-0.442348	0.928901	0.760534	-0.468306	0.969035	0.629564	-0.438157	0.817752	0.722688	-0.494681	0.86153	0.594659	-0.456234	1.0648	0.0561131	-0.329388	0.770358	1.12086	-0.545545	0.731497	1.06906	-0.58025	0.82255	1.5012	-0.112245	0.633884	1.24527	0.0396399	0.607487	1.2151	-0.0452525	0.78434	1.15752	-0.00880259	0.74757	1.30297	-0.00867284	0.871739	1.09376	-0.0487245	0.847066	1.05978	-0.0192233	0.916303	1.42056	-0.313852	0.862913	0.974569	-0.159019	0.654363	1.0363	-0.211161	0.207567	0.442663	-0.155379	0.333783	0.514319	-0.174052	0.340955	0.591232	-0.236501	0.757756	0.480469	-0.145322	0.531471	0.458198	-0.153263	0.655576	0.515331	-0.124657	0.544471	0.538695	-0.144797	0.64977	0.443431	-0.142546	0.869784	0.684584	-0.132515	0.853694	0.570624	-0.153342	0.81136	0.541734	-0.129459	0.762974	0.686423	-0.0929714	0.751972	0.573025	-0.125005	0.223017	0.391183	-0.214665
302	1.505	0.769625	1.52069	-0.302611	0.833017	0.996955	-0.423219	0.641235	1.05695	-0.329156	1.00325	0.0413496	-0.394322	0.795046	1.48706	-0.488339	0.856995	0.0946279	-0.36019	0.801937	0.0681267	-0.307847	0.558099	1.26515	-0.609514	0.52855	1.22679	-0.524351	0.67763	1.15069	-0.603134	0.660736	1.29457	-0.585338	0.920177	0.507629	-0.446227	0.856932	0.400673	-0.447299	0.850494	0.298686	-0.419219	0.945441	0.384117	-0.437577	0.926083	0.754569	-0.46542	0.967177	0.623107	-0.438798	0.815836	0.717602	-0.494273	0.858338	0.590442	-0.453839	1.04364	0.0542403	-0.329022	0.775864	1.11228	-0.546492	0.737619	1.06	-0.581312	0.821297	1.49729	-0.112589	0.628687	1.24339	0.0376066	0.603046	1.21295	-0.0471981	0.77737	1.15002	-0.00668805	0.742449	1.29905	-0.0111911	0.863584	1.0826	-0.0436508	0.83704	1.04979	-0.0147011	0.917129	1.41474	-0.31339	0.860567	0.969875	-0.15859	0.651887	1.03123	-0.210989	0.22298	0.442826	-0.153894	0.348579	0.51455	-0.173445	0.355113	0.591862	-0.235569	0.770351	0.476319	-0.144843	0.545146	0.455735	-0.153098	0.669863	0.510963	-0.12322	0.559128	0.53593	-0.143537	0.663355	0.439466	-0.141767	0.875527	0.682844	-0.131887	0.862898	0.568493	-0.152312	0.821502	0.538198	-0.127834	0.768678	0.681761	-0.0923933	0.761149	0.56809	-0.124748	0.236718	0.391265	-0.213209
303	1.51	0.769425	1.51624	-0.303768	0.831149	0.994246	-0.422188	0.639005	1.0532	-0.328133	0.981169	0.0414387	-0.393905	0.797367	1.48134	-0.490117	0.837065	0.0959946	-0.358686	0.780572	0.0689366	-0.306253	0.564117	1.25503	-0.613631	0.5337	1.2172	-0.528727	0.684016	1.141	-0.605522	0.666102	1.28487	-0.587579	0.919017	0.503488	-0.443781	0.853347	0.400403	-0.447425	0.839226	0.297398	-0.420065	0.941254	0.382139	-0.432656	0.922217	0.748852	-0.462084	0.963813	0.616879	-0.438261	0.812862	0.712926	-0.492047	0.854492	0.58623	-0.450542	1.02178	0.0536645	-0.328835	0.781745	1.10374	-0.547235	0.744101	1.0511	-0.582251	0.820113	1.49345	-0.11287	0.623398	1.24154	0.035487	0.598653	1.21074	-0.049128	0.770319	1.14252	-0.00457419	0.737284	1.29515	-0.0138771	0.854841	1.07161	-0.03855	0.826526	1.04	-0.0100842	0.917963	1.40888	-0.312826	0.858007	0.965714	-0.158218	0.649416	1.02712	-0.211374	0.238913	0.441558	-0.152368	0.363585	0.513929	-0.172762	0.369098	0.591811	-0.234698	0.783405	0.472764	-0.144218	0.559329	0.453073	-0.152819	0.684347	0.50679	-0.121571	0.573896	0.533009	-0.142245	0.677369	0.435684	-0.141519	0.881225	0.681735	-0.131392	0.872337	0.567272	-0.151394	0.831806	0.535636	-0.126628	0.774396	0.677741	-0.0919253	0.770614	0.563933	-0.124221	0.252152	0.389917	-0.211193
